<svg width="27" height="27" viewBox="0 0 27 27" fill="none" xmlns="http://www.w3.org/2000/svg">
    <mask id="mask0_1_155" style="mask-type:alpha" maskUnits="userSpaceOnUse" x="0" y="0" width="27"
        height="27">
        <rect y="0.714478" width="26.2246" height="26.2246" fill="#D9D9D9" />
    </mask>
    <g mask="url(#mask0_1_155)">
        <path
            d="M11.5825 18.8531L19.2859 11.1497L17.7562 9.6199L11.5825 15.7936L8.46828 12.6794L6.93851 14.2092L11.5825 18.8531ZM13.1122 24.7537C11.6007 24.7537 10.1802 24.4669 8.85072 23.8932C7.52128 23.3195 6.36485 22.541 5.38143 21.5576C4.398 20.5741 3.61946 19.4177 3.0458 18.0883C2.47213 16.7588 2.1853 15.3383 2.1853 13.8268C2.1853 12.3152 2.47213 10.8947 3.0458 9.56526C3.61946 8.23582 4.398 7.07939 5.38143 6.09597C6.36485 5.11254 7.52128 4.334 8.85072 3.76034C10.1802 3.18667 11.6007 2.89984 13.1122 2.89984C14.6238 2.89984 16.0443 3.18667 17.3737 3.76034C18.7032 4.334 19.8596 5.11254 20.843 6.09597C21.8264 7.07939 22.605 8.23582 23.1786 9.56526C23.7523 10.8947 24.0391 12.3152 24.0391 13.8268C24.0391 15.3383 23.7523 16.7588 23.1786 18.0883C22.605 19.4177 21.8264 20.5741 20.843 21.5576C19.8596 22.541 18.7032 23.3195 17.3737 23.8932C16.0443 24.4669 14.6238 24.7537 13.1122 24.7537Z"
            fill="#1EB700" />
    </g>
</svg>